<?xml version="1.0" encoding="UTF-8"?><svg id="a" xmlns="http://www.w3.org/2000/svg" viewBox="0 0 43.38 43.38"><defs><style>.b{fill:#fff;}.c{fill:#0037f4;}</style></defs><circle class="c" cx="21.69" cy="21.69" r="21.69"/><path class="b" d="M17.15,20.45l.75-.82c1.27-1.42,1.16-3.6-.25-4.88l-1.26-1.14c-.63-.58-1.46-.89-2.32-.89-.97,0-1.9,.41-2.56,1.13l-.75,.83c-.09,.11-.18,.22-.27,.35h0c-.97,1.04-1.34,2.5-1,3.88,1.65,8.43,8.65,14.76,17.2,15.56,1.04,.12,2.09-.1,3-.62,.31-.18,.6-.41,.84-.68l.75-.83c1.24-1.42,1.12-3.57-.28-4.83l-1.27-1.15c-1.41-1.28-3.58-1.17-4.86,.24h-.01l-.75,.84c-.32,.35-.56,.76-.71,1.21l-.07,.2-.2-.08c-3.33-1.31-6.07-3.8-7.68-7l-.1-.21,.23-.07c.61-.19,1.15-.55,1.57-1.04Z"/><path class="b" d="M21.36,10.5c0,.44,.35,.8,.79,.81h.01c5.64,0,10.21,4.58,10.22,10.22,.05,.44,.45,.76,.89,.72,.38-.04,.67-.34,.72-.72-.01-6.53-5.3-11.82-11.83-11.83-.44,0-.8,.36-.8,.8Z"/><path class="b" d="M21.23,14.44c0,.44,.36,.8,.8,.8,3.54,0,6.41,2.88,6.42,6.42,.05,.44,.45,.76,.89,.72,.38-.04,.67-.34,.72-.72,0-4.42-3.58-8-8-8-.44-.02-.81,.33-.83,.77h0Z"/></svg>